<svg xmlns="http://www.w3.org/2000/svg" version="1.1" xmlns:xlink="http://www.w3.org/1999/xlink" width="512" height="512"><svg width="512" height="512" viewBox="0 0 512 512" fill="none" xmlns="http://www.w3.org/2000/svg">
<rect width="512" height="512" fill="#152211"></rect>
<path d="M180.403 412.21C175.309 411.383 169.94 408.836 165.087 404.982C158.616 399.784 154.52 392.453 151.973 381.405C150.975 377.137 151.044 365.607 152.146 358.689C155.794 335.043 162.471 315.459 177.443 284.723C183.914 271.437 190.316 259.391 202.259 237.879C207.766 227.967 213.686 216.608 216.577 210.275C225.767 190.244 227.867 165.669 221.843 148.735C218.195 138.547 211.277 132.593 200.951 130.803C194.48 129.667 186.186 131.25 176.617 135.415C171.661 137.549 162.574 143.021 157.412 146.911C147.155 154.724 139.239 162.537 128.225 175.754C120.618 184.909 118.759 187.387 108.64 201.843L104.235 208.176L105.233 211.996C107.436 220.704 105.99 229.034 100.999 236.571C92.5324 249.341 74.9445 253.781 61.6933 246.449C54.2245 242.285 48.7864 235.332 46.6524 227.209C45.7231 223.63 45.792 215.507 46.8245 211.721C49.0617 203.357 55.3259 195.716 62.8636 192.102C65.9957 190.588 71.1585 189.246 74.2217 189.142C75.4952 189.108 76.6655 188.901 76.8375 188.695C77.0096 188.488 78.3864 186.527 79.9352 184.358C85.3734 176.648 88.1957 173.138 97.6952 162.089C104.269 154.448 112.667 145.844 120.343 138.891C131.46 128.841 146.191 118.825 158.857 112.733C167.049 108.809 174.655 106.366 183.501 104.782C189.283 103.75 200.951 103.681 205.701 104.61C217.954 107.088 229.037 113.662 236.127 122.68C242.839 131.181 246.9 140.543 248.724 151.661C250.376 161.47 250.583 166.942 249.757 175.754C248.862 185.528 246.453 196.714 243.217 206.214C239.879 216.092 232.375 230.341 216.371 257.154C205.357 275.602 203.773 278.355 196.58 291.572C180.747 320.725 172.625 341.169 169.011 361.098C167.909 367.052 167.909 376.758 168.976 380.716C171.833 391.214 178.441 396.893 187.115 396.274C197.303 395.551 212.929 386.327 228.417 371.905C242.426 358.895 256.4 342.959 275.984 317.696C287.72 302.552 316.494 262.385 340.071 228.242C342.79 224.284 346.542 218.88 348.332 216.264C350.156 213.648 353.701 208.486 356.179 204.837L360.722 198.16L359.552 197.781C358.898 197.575 354.458 196.336 349.674 195.062C344.89 193.754 337.8 191.827 333.91 190.726C326.269 188.626 315.152 185.528 307.752 183.498C298.562 180.951 290.956 178.886 286.068 177.509C283.315 176.752 279.254 175.65 277.051 175.031C274.814 174.446 272.989 173.826 272.989 173.688C272.989 173.551 274.745 172.759 276.879 171.967C278.978 171.141 284.072 169.18 288.134 167.562C292.195 165.979 296.945 164.154 298.631 163.501C300.352 162.881 303.347 161.745 305.343 160.954C307.339 160.162 310.506 158.923 312.399 158.2C314.292 157.477 317.389 156.238 319.282 155.515C321.175 154.758 327.749 152.211 333.91 149.836C340.071 147.461 351.154 143.194 358.52 140.337C365.92 137.446 372.321 134.967 372.803 134.795C375.144 133.935 396.483 125.64 399.478 124.401C401.371 123.644 407.566 121.234 413.245 119.066C427.735 113.525 437.338 109.807 448.18 105.54C457.335 101.96 465.217 99 465.665 99C465.975 99 466.078 99.2753 465.94 99.9637C465.837 100.48 465.424 102.511 465.045 104.507C464.701 106.503 463.668 111.838 462.808 116.381C461.948 120.925 460.915 126.363 460.536 128.428C459.882 132.076 458.024 141.714 455.58 154.414C454.926 157.718 453.549 165.015 452.482 170.625C451.45 176.235 449.97 183.842 449.247 187.49C448.524 191.173 447.733 195.269 447.492 196.577C447.251 197.919 446.046 204.011 444.842 210.172C443.637 216.333 442.398 222.666 442.122 224.284C441.847 225.901 441.021 230.307 440.298 234.093C439.541 237.879 438.164 245.176 437.166 250.27C436.202 255.398 434.482 264.209 433.346 269.888C432.21 275.568 430.833 282.692 430.282 285.721C429.732 288.75 429.043 292.398 428.734 293.809C428.114 296.804 425.567 309.986 425.12 312.705C424.569 315.872 424.397 315.734 422.091 310.158C420.094 305.305 415.689 294.911 408.427 277.805C405.501 270.99 402.679 264.244 402.128 262.833C401.543 261.422 400.132 258.083 398.961 255.433C397.791 252.782 395.623 247.688 394.143 244.075C385.779 223.699 386.743 225.729 385.848 226.555C385.469 226.865 383.335 229.412 381.098 232.166C378.827 234.919 374.972 239.669 372.494 242.698C370.015 245.727 366.436 250.063 364.508 252.335C362.615 254.607 358.175 259.942 354.63 264.175C351.085 268.443 347.093 273.158 345.785 274.673C344.442 276.222 341.758 279.388 339.761 281.763C326.854 297.148 303.76 323.203 285.862 342.512C277.842 351.185 258.843 370.219 251.822 376.621C242.047 385.569 232.823 392.935 224.631 398.442C215.166 404.741 204.634 409.559 195.892 411.556C192.553 412.347 183.535 412.726 180.403 412.21Z" fill="#46EC13"></path>
</svg><style>@media (prefers-color-scheme: light) { :root { filter: none; } }
@media (prefers-color-scheme: dark) { :root { filter: none; } }
</style></svg>